<svg width="120" height="120" viewBox="0 0 120 120" fill="none" xmlns="http://www.w3.org/2000/svg">
    
  <path
    fill-rule="evenodd"
    clip-rule="evenodd"
    d="M 24 22 C 38 10, 68 9, 88 13 C 106 17, 114 34, 110 52 C 106 68, 94 78, 82 82 L 112 112 C 110 116, 105 118, 98 118 L 70 88 C 64 88, 58 85, 54 80 C 48 72, 44 58, 48 46 C 52 34, 64 26, 78 26 C 90 26, 98 34, 96 46 C 94 56, 84 62, 72 62 C 64 62, 58 56, 58 50 C 58 44, 63 40, 69 40 C 73 40, 76 43, 75 46 C 71 46, 68 49, 70 52 C 71 54, 76 55, 78 52 C 80 49, 81 44, 76 38 C 71 33, 62 33, 55 39 C 47 47, 45 61, 50 74 C 56 87, 67 98, 78 107 L 66 112 C 48 98, 32 84, 20 62 C 12 44, 15 29, 24 22 Z"
    fill="#FFFFFF"
  />

  </svg>